<svg xmlns="http://www.w3.org/2000/svg" width="18" height="18" viewBox="0 0 18 18" fill="none">
  <path d="M3.9003 14.523C-0.680564 9.95679 -0.418075 3.6977 0.658616 0.603067C0.788334 0.230233 1.15019 0 1.54495 0H6.11559C6.66787 0 7.11559 0.447716 7.11559 1V3.33462C7.11559 3.69246 6.92438 4.02303 6.6142 4.20145L4.89587 5.18985C4.58569 5.36828 4.38851 5.6982 4.41584 6.05499C4.49656 7.10878 4.88242 9.289 6.72686 11.3478C8.32423 13.1309 10.41 13.5598 11.3211 13.663C11.6123 13.696 11.8898 13.5671 12.0798 13.344L13.8132 11.3082C14.0032 11.0851 14.2816 10.9565 14.5746 10.9565H17C17.5523 10.9565 18 11.4042 18 11.9565V16.9408C18 17.4359 17.6397 17.8534 17.1465 17.8972C14.7256 18.1125 7.74245 18.3528 3.9003 14.523Z" fill="#D5D5D5"/>
</svg>