<svg xmlns="http://www.w3.org/2000/svg" width="48" height="48" viewBox="0 0 48 48" fill="none">
  <circle cx="24" cy="24" r="24" fill="#D9D9D9"/>
  <path d="M30.9551 16.6555C30.9551 20.3312 27.8412 23.3109 24 23.3109C20.1588 23.3109 17.0449 20.3312 17.0449 16.6555C17.0449 12.9797 20.1588 10 24 10C27.8412 10 30.9551 12.9797 30.9551 16.6555Z" fill="#A7A7A7"/>
  <path d="M21.5382 30.4861C21.4481 30.2948 21.4904 30.0696 21.6443 29.921L24 27.647L26.3557 29.921C26.5096 30.0696 26.5519 30.2948 26.4618 30.4861L24.4755 34.7044C24.2899 35.0985 23.7101 35.0985 23.5245 34.7044L21.5382 30.4861Z" fill="#A7A7A7"/>
  <path d="M25.3481 24.9114C25.7027 25.0141 25.8371 25.4303 25.6059 25.7093L24 27.647L22.3941 25.7093C22.1629 25.4303 22.2973 25.0141 22.6519 24.9114L23.8499 24.5645C23.9478 24.5361 24.0522 24.5361 24.1501 24.5645L25.3481 24.9114Z" fill="#A7A7A7"/>
  <path d="M21.0624 27.9618C21.2486 27.782 21.2671 27.4964 21.1054 27.2957L19.5764 25.3978C19.4444 25.2339 19.2201 25.1644 19.0156 25.2288C14.2287 26.7381 12.1869 30.3745 12.0007 33.698C11.9852 33.9761 12.2205 34.2017 12.5089 34.2017H20.0209C20.4092 34.2017 20.6618 33.8072 20.4881 33.472L18.9451 30.4931C18.8446 30.299 18.884 30.0645 19.043 29.9111L21.0624 27.9618Z" fill="#A7A7A7"/>
  <path d="M26.9376 27.9618C26.7514 27.782 26.7329 27.4964 26.8946 27.2957L28.4236 25.3978C28.5557 25.2339 28.7799 25.1644 28.9844 25.2288C33.7713 26.7381 35.8131 30.3745 35.9993 33.698C36.0148 33.9761 35.7795 34.2017 35.4911 34.2017H27.9791C27.5908 34.2017 27.3382 33.8072 27.5119 33.472L29.0549 30.4931C29.1554 30.299 29.116 30.0645 28.957 29.9111L26.9376 27.9618Z" fill="#A7A7A7"/>
</svg>