<svg xmlns="http://www.w3.org/2000/svg" width="28" height="28" viewBox="0 0 28 28" fill="none">
  <path d="M15.0434 20.3831C15.2074 20.5472 15.2995 20.7696 15.2995 21.0016C15.2995 21.2336 15.2074 21.4561 15.0434 21.6201L13.9563 22.7139C12.8065 23.8629 11.2474 24.5081 9.62198 24.5076C7.99652 24.5071 6.43784 23.8609 5.28883 22.7111C4.13982 21.5614 3.4946 20.0023 3.49512 18.3769C3.49563 16.7514 4.14183 15.1927 5.29157 14.0437L7.92969 11.4056C9.03404 10.3004 10.519 9.65895 12.0807 9.61259C13.6424 9.56624 15.1628 10.1184 16.3308 11.1562C16.417 11.2326 16.4873 11.3253 16.5376 11.4289C16.588 11.5324 16.6175 11.6449 16.6244 11.7599C16.6313 11.8749 16.6155 11.9901 16.5779 12.0989C16.5403 12.2078 16.4816 12.3082 16.4052 12.3943C16.3287 12.4805 16.2361 12.5508 16.1325 12.6012C16.029 12.6516 15.9165 12.6811 15.8015 12.688C15.6865 12.6949 15.5713 12.6791 15.4625 12.6414C15.3536 12.6038 15.2532 12.5451 15.167 12.4687C14.3328 11.7279 13.2472 11.3338 12.132 11.3669C11.0169 11.4001 9.95654 11.858 9.16782 12.647L6.52969 15.2818C5.70905 16.1025 5.24802 17.2155 5.24802 18.3761C5.24802 19.5366 5.70905 20.6496 6.52969 21.4703C7.35033 22.2909 8.46335 22.752 9.62391 22.752C10.7845 22.752 11.8975 22.2909 12.7181 21.4703L13.8053 20.3831C13.8866 20.3017 13.9831 20.2372 14.0893 20.1932C14.1955 20.1491 14.3094 20.1265 14.4244 20.1265C14.5394 20.1265 14.6532 20.1491 14.7595 20.1932C14.8657 20.2372 14.9622 20.3017 15.0434 20.3831ZM22.7084 5.28935C21.5585 4.14202 20.0005 3.49768 18.3761 3.49768C16.7517 3.49768 15.1937 4.14202 14.0438 5.28935L12.9566 6.37763C12.7925 6.54181 12.7004 6.76444 12.7005 6.99653C12.7006 7.22862 12.7929 7.45117 12.9571 7.61521C13.1213 7.77925 13.3439 7.87135 13.576 7.87124C13.8081 7.87114 14.0307 7.77885 14.1947 7.61466L15.2819 6.52747C16.1025 5.70683 17.2155 5.24581 18.3761 5.24581C19.5367 5.24581 20.6497 5.70683 21.4703 6.52747C22.291 7.34811 22.752 8.46113 22.752 9.62169C22.752 10.7822 22.291 11.8953 21.4703 12.7159L18.8322 15.3562C18.043 16.1448 16.9825 16.6021 15.8673 16.6346C14.7522 16.6671 13.6667 16.2724 12.833 15.5312C12.6589 15.3769 12.4307 15.298 12.1985 15.312C11.9663 15.3259 11.7492 15.4315 11.5948 15.6056C11.4405 15.7796 11.3617 16.0079 11.3756 16.2401C11.3896 16.4723 11.4952 16.6894 11.6692 16.8437C12.8369 17.8818 14.3571 18.4344 15.9189 18.3884C17.4806 18.3425 18.9657 17.7015 20.0703 16.5965L22.7084 13.9584C23.8564 12.8084 24.5012 11.2499 24.5012 9.62497C24.5012 8.00005 23.8564 6.44153 22.7084 5.29154V5.28935Z" fill="#D5D5D5"/>
</svg>