<svg xmlns="http://www.w3.org/2000/svg" width="20" height="20" viewBox="0 0 20 20" fill="none">
  <path d="M0.492844 14.9107L11.7494 3.65418C12.1399 3.26366 12.7731 3.26366 13.1636 3.65418L16.3456 6.83616C16.7361 7.22669 16.7361 7.85985 16.3456 8.25038L5.08904 19.5069C4.9015 19.6944 4.64715 19.7998 4.38193 19.7998L1.19995 19.7998C0.647666 19.7998 0.199952 19.3521 0.199951 18.7998L0.199951 15.6178C0.199951 15.3526 0.305307 15.0982 0.492844 14.9107Z" fill="#22FF60"/>
  <path d="M14.7546 0.648978C15.6483 0.0106174 17.0527 -0.117055 18.5847 1.41501C20.1168 2.94707 19.9891 4.35147 19.3508 5.24517L18.5553 6.04067C18.36 6.23593 18.0434 6.23593 17.8482 6.04067L13.9591 2.15158C13.7638 1.95632 13.7638 1.63973 13.9591 1.44447L14.7546 0.648978Z" fill="#22FF60"/>
</svg>