<svg xmlns="http://www.w3.org/2000/svg" width="24" height="24" viewBox="0 0 24 24" fill="none">
  <path d="M18.666 6.38924C18.666 9.91792 15.6818 12.7785 12.0006 12.7785C8.31949 12.7785 5.33532 9.91792 5.33532 6.38924C5.33532 2.86056 8.31949 0 12.0006 0C15.6818 0 18.666 2.86056 18.666 6.38924Z" fill="#D5D5D5"/>
  <path d="M9.6414 19.6667C9.55506 19.483 9.5956 19.2668 9.74314 19.1241L12.0006 16.9412L14.2582 19.1241C14.4057 19.2668 14.4462 19.483 14.3599 19.6667L12.4563 23.7163C12.2785 24.0946 11.7228 24.0946 11.545 23.7163L9.6414 19.6667Z" fill="#D5D5D5"/>
  <path d="M13.2926 14.3149C13.6324 14.4135 13.7612 14.8131 13.5396 15.0809L12.0006 16.9412L10.4617 15.0809C10.2401 14.8131 10.3689 14.4135 10.7087 14.3149L11.8568 13.9819C11.9506 13.9547 12.0507 13.9547 12.1445 13.9819L13.2926 14.3149Z" fill="#D5D5D5"/>
  <path d="M8.68477 17.2433C8.86327 17.0707 8.88093 16.7966 8.72596 16.6039L7.26071 14.7819C7.13417 14.6246 6.91922 14.5578 6.72327 14.6197C2.13579 16.0686 0.179128 19.5596 0.000700934 22.7501C-0.0142271 23.017 0.211271 23.2336 0.487722 23.2336H7.68673C8.05884 23.2336 8.30086 22.8549 8.13445 22.5331L6.65577 19.6734C6.55941 19.487 6.59718 19.262 6.74953 19.1146L8.68477 17.2433Z" fill="#D5D5D5"/>
  <path d="M15.3167 17.2433C15.1382 17.0707 15.1205 16.7966 15.2755 16.6039L16.7407 14.7819C16.8673 14.6246 17.0822 14.5578 17.2782 14.6197C21.8656 16.0686 23.8223 19.5596 24.0007 22.7501C24.0157 23.017 23.7902 23.2336 23.5137 23.2336H16.3147C15.9426 23.2336 15.7006 22.8549 15.867 22.5331L17.3457 19.6734C17.442 19.487 17.4043 19.262 17.2519 19.1146L15.3167 17.2433Z" fill="#D5D5D5"/>
</svg>