<svg xmlns="http://www.w3.org/2000/svg" width="24" height="24" viewBox="0 0 24 24" fill="none">
  <path d="M19.5758 9.78129C19.5758 14.9072 15.3055 19.0626 10.0379 19.0626C4.77025 19.0626 0.5 14.9072 0.5 9.78129C0.5 4.65537 4.77025 0.5 10.0379 0.5C15.3055 0.5 19.5758 4.65537 19.5758 9.78129Z" fill="#555555"/>
  <path d="M21.2199 23.1375L15.3881 17.4626C14.8915 16.9793 14.8915 16.1958 15.3881 15.7125L15.4972 15.6064C15.9939 15.1231 16.7991 15.1231 17.2957 15.6064L23.1275 21.2813C23.6242 21.7646 23.6242 22.5481 23.1275 23.0314L23.0184 23.1375C22.5218 23.6208 21.7166 23.6208 21.2199 23.1375Z" fill="#555555"/>
</svg>