<svg xmlns="http://www.w3.org/2000/svg" width="22" height="22" viewBox="0 0 22 22" fill="none">
  <path fill-rule="evenodd" clip-rule="evenodd" d="M5.96767 3.27954L6.89503 2.73933C7.06422 2.64077 7.20075 2.49472 7.28769 2.31928L8.16154 0.555965C8.33029 0.215435 8.6775 0 9.05755 0H12.9472C13.3272 0 13.6744 0.215435 13.8432 0.555965L14.717 2.31928C14.804 2.49472 14.9405 2.64077 15.1097 2.73933L16.037 3.27953C16.2076 3.37889 16.4038 3.42555 16.6008 3.41361L18.5416 3.29608C18.9213 3.27309 19.2811 3.46746 19.47 3.79758L21.4226 7.20982C21.6093 7.53609 21.5973 7.93951 21.3914 8.25406L20.3098 9.90689C20.2033 10.0697 20.1466 10.26 20.1466 10.4545L20.1466 11.5456C20.1466 11.7401 20.2033 11.9304 20.3098 12.0931L21.3914 13.746C21.5973 14.0605 21.6093 14.4639 21.4226 14.7902L19.47 18.2025C19.2811 18.5326 18.9213 18.727 18.5416 18.704L16.6008 18.5864C16.4038 18.5745 16.2076 18.6211 16.037 18.7205L15.1097 19.2607C14.9405 19.3592 14.804 19.5053 14.717 19.6807L13.8432 21.444C13.6744 21.7846 13.3272 22 12.9472 22H9.05755C8.6775 22 8.33029 21.7846 8.16154 21.444L7.2877 19.6807C7.20075 19.5053 7.06422 19.3592 6.89502 19.2607L5.96767 18.7205C5.7971 18.6211 5.60093 18.5745 5.40389 18.5864L3.46306 18.7039C3.08341 18.7269 2.72358 18.5326 2.53467 18.2024L0.582076 14.7902C0.395371 14.4639 0.407419 14.0605 0.613262 13.746L1.69488 12.0931C1.80139 11.9304 1.85812 11.7401 1.85812 11.5456L1.85812 10.4545C1.85812 10.26 1.80139 10.0697 1.69488 9.90691L0.613257 8.25407C0.407414 7.93952 0.395366 7.5361 0.582071 7.20983L2.53467 3.7976C2.72358 3.46747 3.0834 3.2731 3.46306 3.29609L5.40387 3.41363C5.60092 3.42556 5.79709 3.3789 5.96767 3.27954ZM11.1804 14.2353C12.9513 14.2353 14.387 12.7868 14.387 11C14.387 9.21319 12.9513 7.7647 11.1804 7.7647C9.4094 7.7647 7.97374 9.21319 7.97374 11C7.97374 12.7868 9.4094 14.2353 11.1804 14.2353Z" fill="#D5D5D5"/>
</svg>