<svg width="66" height="23" viewBox="0 0 66 23" fill="none" xmlns="http://www.w3.org/2000/svg">
<rect width="66" height="23" rx="11.5" fill="#32D74B"/>
<path d="M22.8646 6.16748C23.4311 6.16748 23.9682 6.27246 24.476 6.48242C24.9838 6.6875 25.433 7.00977 25.8236 7.44922C26.2191 7.88379 26.5292 8.44287 26.7538 9.12646C26.9784 9.80518 27.0907 10.623 27.0907 11.5801V11.5947C27.0907 12.7812 26.9198 13.7969 26.578 14.6416C26.2362 15.4863 25.7455 16.1357 25.1059 16.5898C24.4711 17.0391 23.7118 17.2637 22.828 17.2637C22.1786 17.2637 21.5927 17.1465 21.0702 16.9121C20.5526 16.6729 20.1229 16.3457 19.7812 15.9307C19.4442 15.5107 19.2172 15.0322 19.1 14.4951L19.0854 14.4146H20.9384L20.9677 14.4878C21.0604 14.7319 21.1923 14.9468 21.3632 15.1323C21.539 15.3179 21.7489 15.4619 21.9931 15.5645C22.2421 15.6621 22.5204 15.7109 22.828 15.7109C23.3847 15.7109 23.8388 15.5474 24.1903 15.2202C24.5468 14.8882 24.8129 14.4463 24.9887 13.8945C25.1693 13.3379 25.2719 12.7227 25.2963 12.0488C25.3012 11.9756 25.3036 11.9048 25.3036 11.8364C25.3036 11.7632 25.3036 11.6924 25.3036 11.624L24.974 9.85889C24.974 9.4585 24.8813 9.09473 24.6957 8.76758C24.5102 8.44043 24.2587 8.18164 23.9413 7.99121C23.6288 7.80078 23.2748 7.70557 22.8793 7.70557C22.4984 7.70557 22.1493 7.79834 21.8319 7.98389C21.5146 8.16943 21.2606 8.42334 21.0702 8.74561C20.8798 9.06299 20.7846 9.41943 20.7846 9.81494V9.82959C20.7846 10.2397 20.8749 10.6035 21.0556 10.9209C21.2362 11.2334 21.4828 11.48 21.7953 11.6606C22.1078 11.8413 22.4643 11.9316 22.8646 11.9316C23.265 11.9316 23.6239 11.8438 23.9413 11.668C24.2587 11.4922 24.5102 11.248 24.6957 10.9355C24.8813 10.623 24.974 10.269 24.974 9.87354V9.85889H25.4135V11.8071H25.1571C25.0302 12.0854 24.8422 12.3442 24.5932 12.5835C24.3441 12.8228 24.0365 13.0156 23.6703 13.1621C23.309 13.3086 22.8842 13.3818 22.3959 13.3818C21.7221 13.3818 21.1264 13.2305 20.6088 12.9277C20.0912 12.625 19.6835 12.21 19.3856 11.6826C19.0927 11.1553 18.9462 10.5596 18.9462 9.89551V9.88086C18.9462 9.16309 19.1122 8.52588 19.4442 7.96924C19.7812 7.40771 20.245 6.96826 20.8358 6.65088C21.4315 6.32861 22.1078 6.16748 22.8646 6.16748ZM30.0159 15.5791C29.6839 15.5791 29.4056 15.4692 29.181 15.2495C28.9612 15.0249 28.8514 14.7515 28.8514 14.4292C28.8514 14.1021 28.9612 13.8286 29.181 13.6089C29.4056 13.3843 29.6839 13.272 30.0159 13.272C30.3528 13.272 30.6312 13.3843 30.8509 13.6089C31.0706 13.8286 31.1805 14.1021 31.1805 14.4292C31.1805 14.7515 31.0706 15.0249 30.8509 15.2495C30.6312 15.4692 30.3528 15.5791 30.0159 15.5791ZM30.0159 10.1445C29.6839 10.1445 29.4056 10.0347 29.181 9.81494C28.9612 9.59033 28.8514 9.31689 28.8514 8.99463C28.8514 8.66748 28.9612 8.39404 29.181 8.17432C29.4056 7.94971 29.6839 7.8374 30.0159 7.8374C30.3528 7.8374 30.6312 7.94971 30.8509 8.17432C31.0706 8.39404 31.1805 8.66748 31.1805 8.99463C31.1805 9.31689 31.0706 9.59033 30.8509 9.81494C30.6312 10.0347 30.3528 10.1445 30.0159 10.1445ZM38.0681 17V14.9712H32.8972V13.4258C33.1755 12.9521 33.4538 12.4761 33.7321 11.9976C34.0153 11.519 34.301 11.043 34.5891 10.5693C34.882 10.0908 35.1726 9.61963 35.4606 9.15576C35.7536 8.68701 36.0441 8.22559 36.3322 7.77148C36.6252 7.3125 36.9182 6.86572 37.2111 6.43115H39.8698V13.4111H41.298V14.9712H39.8698V17H38.0681ZM34.655 13.4551H38.0974V7.93994H37.9875C37.7727 8.27197 37.5505 8.61377 37.321 8.96533C37.0964 9.31689 36.8693 9.67578 36.6398 10.042C36.4104 10.4082 36.1833 10.7769 35.9587 11.1479C35.7341 11.5142 35.5119 11.8828 35.2922 12.2539C35.0725 12.6201 34.8601 12.9839 34.655 13.3452V13.4551ZM45.2706 17V8.2915H45.1388L42.5094 10.1445V8.37207L45.2706 6.43115H47.1529V17H45.2706Z" fill="white"/>
</svg>
