<svg width="20" height="13" viewBox="0 0 20 13" fill="none" xmlns="http://www.w3.org/2000/svg">
<g id="Signal">
<path id="Cellular Connection" fill-rule="evenodd" clip-rule="evenodd" d="M18.8039 0.499878H17.6373C16.993 0.499878 16.4706 1.00356 16.4706 1.62488V11.3749C16.4706 11.9962 16.993 12.4999 17.6373 12.4999H18.8039C19.4483 12.4999 19.9706 11.9962 19.9706 11.3749V1.62488C19.9706 1.00356 19.4483 0.499878 18.8039 0.499878ZM12.1471 3.12501H13.3138C13.9581 3.12501 14.4804 3.62869 14.4804 4.25001V11.375C14.4804 11.9963 13.9581 12.5 13.3138 12.5H12.1471C11.5028 12.5 10.9804 11.9963 10.9804 11.375V4.25001C10.9804 3.62869 11.5028 3.12501 12.1471 3.12501ZM7.82356 5.7498H6.65689C6.01256 5.7498 5.49023 6.25348 5.49023 6.8748V11.3748C5.49023 11.9961 6.01256 12.4998 6.65689 12.4998H7.82356C8.46789 12.4998 8.99023 11.9961 8.99023 11.3748V6.8748C8.99023 6.25348 8.46789 5.7498 7.82356 5.7498ZM2.33336 7.99976H1.1667C0.522365 7.99976 3.05176e-05 8.50344 3.05176e-05 9.12476V11.3748C3.05176e-05 11.9961 0.522365 12.4998 1.1667 12.4998H2.33336C2.9777 12.4998 3.50003 11.9961 3.50003 11.3748V9.12476C3.50003 8.50344 2.9777 7.99976 2.33336 7.99976Z" fill="white"/>
</g>
</svg>
