<svg width="18" height="13" viewBox="0 0 18 13" fill="none" xmlns="http://www.w3.org/2000/svg">
<g id="Connection">
<path id="Wifi" fill-rule="evenodd" clip-rule="evenodd" d="M8.97108 2.84599C11.4376 2.8461 13.8099 3.81668 15.5975 5.55712C15.7321 5.69149 15.9473 5.68979 16.0798 5.55332L17.3666 4.2234C17.4337 4.15418 17.4712 4.06042 17.4706 3.96287C17.47 3.86531 17.4316 3.77201 17.3636 3.7036C12.6717 -0.901199 5.26969 -0.901199 0.577775 3.7036C0.509809 3.77196 0.471246 3.86523 0.470619 3.96279C0.469993 4.06034 0.507354 4.15413 0.574435 4.2234L1.86157 5.55332C1.99407 5.69 2.2094 5.6917 2.34393 5.55712C4.13177 3.81656 6.50428 2.84598 8.97108 2.84599ZM8.97106 7.17266C10.3263 7.17257 11.6331 7.68843 12.6377 8.61999C12.7736 8.7522 12.9876 8.74933 13.12 8.61353L14.4053 7.28361C14.473 7.21386 14.5106 7.11922 14.5096 7.02089C14.5086 6.92255 14.4692 6.82872 14.4001 6.76039C11.341 3.84629 6.60367 3.84629 3.5446 6.76039C3.4755 6.82872 3.43607 6.9226 3.43517 7.02097C3.43426 7.11933 3.47195 7.21396 3.53977 7.28361L4.82469 8.61353C4.95714 8.74933 5.17117 8.7522 5.30704 8.61999C6.31093 7.68905 7.61674 7.17323 8.97106 7.17266ZM11.5457 10.084C11.5477 10.1826 11.5098 10.2777 11.4411 10.3468L9.2178 12.6445C9.15263 12.712 9.06377 12.75 8.97106 12.75C8.87834 12.75 8.78949 12.712 8.72432 12.6445L6.50067 10.3468C6.43198 10.2776 6.39419 10.1825 6.39623 10.0839C6.39826 9.98529 6.43995 9.89191 6.51143 9.82581C7.9313 8.59595 10.0108 8.59595 11.4307 9.82581C11.5021 9.89196 11.5437 9.98537 11.5457 10.084Z" fill="white"/>
</g>
</svg>
